<svg xmlns="http://www.w3.org/2000/svg" width="1440" height="560" viewBox="0 0 1440 560"><rect width="1440" height="560" fill="#fff"/><rect width="700" height="560" fill="#0B3C5D"/><svg x="60" y="60" width="580" height="440" viewBox="0 0 300 160">
<defs><clipPath id="cliplogin"><rect width="300" height="160" rx="18"/></clipPath></defs>
<g clip-path="url(#cliplogin)"><rect width="300" height="160" fill="#FDEBD3"/><circle cx="245" cy="38" r="20" fill="#FFD27A"/><g transform="translate(70,40) scale(0.9)" fill="#fff"><ellipse cx="0" cy="0" rx="26" ry="10"/><ellipse cx="-12" cy="-8" rx="12" ry="9"/><ellipse cx="8" cy="-11" rx="14" ry="11"/></g><rect x="0" y="122" width="300" height="38" fill="#3B4A5A"/><line x1="0" y1="141.0" x2="300" y2="141.0" stroke="#fff" stroke-width="3" stroke-dasharray="16 12"/><g transform="translate(72,122) scale(1.05)">
<rect x="0" y="-62" width="98" height="52" rx="4" fill="#fff" stroke="#0B3C5D" stroke-width="3"/>
<rect x="8" y="-54" width="82" height="7" fill="#F28C28"/>
<text x="12" y="-24" font-family="Poppins, sans-serif" font-weight="700" font-size="14" fill="#0B3C5D">NusaKirim</text>
<path d="M102 -46 h26 l16 20 v16 h-42 z" fill="#F28C28" stroke="#0B3C5D" stroke-width="3" stroke-linejoin="round"/>
<path d="M110 -40 h14 l10 14 h-24 z" fill="#CFE8F7" stroke="#0B3C5D" stroke-width="2"/>
<circle cx="24" cy="-6" r="11" fill="#0B3C5D"/><circle cx="24" cy="-6" r="4" fill="#D9E2EA"/><circle cx="78" cy="-6" r="11" fill="#0B3C5D"/><circle cx="78" cy="-6" r="4" fill="#D9E2EA"/><circle cx="124" cy="-6" r="11" fill="#0B3C5D"/><circle cx="124" cy="-6" r="4" fill="#D9E2EA"/></g></g></svg><svg x="830" y="90.0" width="150" height="38.4" viewBox="0 0 250 64">
<rect width="64" height="64" rx="14" fill="#F28C28"/>
<path d="M32 14 L50 23 V41 L32 50 L14 41 V23 Z" fill="#fff"/>
<path d="M14 23 L32 32 L50 23 M32 32 V50" stroke="#F28C28" stroke-width="3" fill="none"/>
<text x="70" y="43" font-family="Poppins, sans-serif" font-weight="700" font-size="30" fill="#0B3C5D">Nusa<tspan fill="#F28C28">Kirim</tspan></text>
</svg><text x="830" y="170.0" font-family="Poppins, sans-serif" font-size="26" font-weight="700" fill="#0B3C5D" text-anchor="start">Masuk ke Akun Anda</text><text x="830" y="200.0" font-family="Poppins, sans-serif" font-size="14" font-weight="400" fill="#5B6B77" text-anchor="start">Kelola pengiriman NusaKirim Anda di satu tempat</text><rect x="830" y="236.0" width="400" height="50" rx="10" stroke="#EAEFF3" stroke-width="1.5" fill="#fff"/><text x="846" y="266.0" font-family="Poppins, sans-serif" font-size="14" font-weight="400" fill="#8A97A2" text-anchor="start">Username</text><rect x="830" y="302.0" width="400" height="50" rx="10" stroke="#EAEFF3" stroke-width="1.5" fill="#fff"/><text x="846" y="332.0" font-family="Poppins, sans-serif" font-size="14" font-weight="400" fill="#8A97A2" text-anchor="start">Password</text><rect x="830" y="368.0" width="400" height="52" rx="10" fill="#F28C28"/><text x="1030.0" y="399.25" font-family="Poppins, sans-serif" font-size="15" font-weight="600" fill="#fff" text-anchor="middle">Login</text><text x="906.05" y="448.0" font-family="Poppins, sans-serif" font-size="14" font-weight="400" fill="#5B6B77" text-anchor="start">Belum punya akun?  </text><text x="1044.75" y="448.0" font-family="Poppins, sans-serif" font-size="14" font-weight="600" fill="#F28C28" text-anchor="start">Daftar di sini</text></svg>